<svg width="32" height="32" viewBox="0 0 32 32" fill="none" xmlns="http://www.w3.org/2000/svg">
<path d="M12.3672 11.5922H13.8203V23.2172H12.3672V11.5922Z" fill="#134563"/>
<path d="M15.2734 11.5922H16.7266V23.2172H15.2734V11.5922Z" fill="#134563"/>
<path d="M18.1797 11.5922H19.6328V23.2172H18.1797V11.5922Z" fill="#134563"/>
<path d="M6.55469 7.23279H25.4453V8.68591H6.55469V7.23279Z" fill="#134563"/>
<path d="M19.5843 7.95937H18.228V6.50625C18.228 6.07031 17.889 5.73125 17.453 5.73125H14.5468C14.1108 5.73125 13.7718 6.07031 13.7718 6.50625V7.95937H12.4155V6.50625C12.4155 5.34375 13.3843 4.375 14.5468 4.375H17.453C18.6155 4.375 19.5843 5.34375 19.5843 6.50625V7.95937Z" fill="#134563"/>
<path d="M20.3594 27.5766H11.6406C10.4781 27.5766 9.46094 26.6078 9.36406 25.4453L8.00781 8.00782L9.46094 7.91095L10.8172 25.3484C10.8656 25.7844 11.2531 26.1234 11.6406 26.1234H20.3594C20.7953 26.1234 21.1828 25.736 21.1828 25.3484L22.5391 7.91095L23.9922 8.00782L22.6359 25.4453C22.5391 26.6563 21.5219 27.5766 20.3594 27.5766Z" fill="#134563"/>
</svg>
