<svg width="40" height="40" viewBox="0 0 40 40" fill="none" xmlns="http://www.w3.org/2000/svg">
<rect x="0.5" y="0.5" width="39" height="39" rx="7.5" stroke="#E2E8F0"/>
<g clip-path="url(#clip0_107_5720)">
<path d="M19.1667 13.3334H13.3334C12.8914 13.3334 12.4675 13.509 12.1549 13.8215C11.8423 14.1341 11.6667 14.558 11.6667 15V26.6667C11.6667 27.1087 11.8423 27.5327 12.1549 27.8452C12.4675 28.1578 12.8914 28.3334 13.3334 28.3334H25.0001C25.4421 28.3334 25.866 28.1578 26.1786 27.8452C26.4912 27.5327 26.6667 27.1087 26.6667 26.6667V20.8334" stroke="#EA3434" stroke-width="2" stroke-linecap="round" stroke-linejoin="round"/>
<path d="M25.4167 12.0833C25.7483 11.7518 26.1979 11.5656 26.6667 11.5656C27.1356 11.5656 27.5852 11.7518 27.9167 12.0833C28.2483 12.4148 28.4345 12.8645 28.4345 13.3333C28.4345 13.8022 28.2483 14.2518 27.9167 14.5833L20.0001 22.5L16.6667 23.3333L17.5001 20L25.4167 12.0833Z" stroke="#EA3434" stroke-width="2" stroke-linecap="round" stroke-linejoin="round"/>
</g>
<defs>
<clipPath id="clip0_107_5720">
<rect width="20" height="20" fill="white" transform="translate(10 10)"/>
</clipPath>
</defs>
</svg>
