<!DOCTYPE svg PUBLIC "-//W3C//DTD SVG 1.1//EN" "http://www.w3.org/Graphics/SVG/1.1/DTD/svg11.dtd">
<!-- Uploaded to: SVG Repo, www.svgrepo.com, Transformed by: SVG Repo Mixer Tools -->
<svg width="800px" height="800px" viewBox="0 0 1024 1024" xmlns="http://www.w3.org/2000/svg" fill="#d81313" stroke="#d81313">
<g id="SVGRepo_bgCarrier" stroke-width="0"/>
<g id="SVGRepo_tracerCarrier" stroke-linecap="round" stroke-linejoin="round"/>
<g id="SVGRepo_iconCarrier">
<path fill="#33b319" d="M329.956 257.138a254.862 254.862 0 0 0 0 509.724h364.088a254.862 254.862 0 0 0 0-509.724H329.956zm0-72.818h364.088a327.68 327.68 0 1 1 0 655.36H329.956a327.68 327.68 0 1 1 0-655.36z"/>
<path fill="#33b319" d="M694.044 621.227a109.227 109.227 0 1 0 0-218.454 109.227 109.227 0 0 0 0 218.454zm0 72.817a182.044 182.044 0 1 1 0-364.088 182.044 182.044 0 0 1 0 364.088z"/>
</g>
</svg>